<svg width="198" height="198" viewBox="0 0 198 198" fill="none" xmlns="http://www.w3.org/2000/svg">
<rect width="198" height="198" fill="#FCEEC2"/>
<rect x="101" y="68.3333" width="25.3333" height="12.6667" rx="2.46296" fill="url(#paint0_linear_193_12864)"/>
<rect x="61" y="114.667" width="25.3333" height="12.6667" rx="2.46296" fill="url(#paint1_linear_193_12864)"/>
<rect x="73" y="97.3333" width="12" height="9.25" rx="1.75" fill="url(#paint2_linear_193_12864)"/>
<rect x="101" y="52" width="12" height="9.25" rx="1.75" fill="url(#paint3_linear_193_12864)"/>
<rect x="133" y="105.333" width="12" height="9.25" rx="1.75" fill="url(#paint4_linear_193_12864)"/>
<rect x="85" y="137.333" width="12" height="9.25" rx="1.75" fill="url(#paint5_linear_193_12864)"/>
<rect x="95.667" y="103.536" width="30.6667" height="24.0952" rx="2.55556" fill="url(#paint6_linear_193_12864)"/>
<rect x="62.333" y="68" width="22.6667" height="23.2479" rx="3.224" fill="url(#paint7_linear_193_12864)"/>
<rect x="53.0469" y="90.1301" width="6.09375" height="6.09375" rx="1.07812" fill="url(#paint8_linear_193_12864)" stroke="#EEDA9D" stroke-width="0.09375"/>
<defs>
<linearGradient id="paint0_linear_193_12864" x1="101" y1="80.9999" x2="111.133" y2="60.7333" gradientUnits="userSpaceOnUse">
<stop stop-color="#F1C43D"/>
<stop offset="1" stop-color="#FFDC75"/>
</linearGradient>
<linearGradient id="paint1_linear_193_12864" x1="61" y1="127.333" x2="71.1333" y2="107.067" gradientUnits="userSpaceOnUse">
<stop stop-color="#F1C43D"/>
<stop offset="1" stop-color="#FFDC75"/>
</linearGradient>
<linearGradient id="paint2_linear_193_12864" x1="73" y1="106.583" x2="81.9453" y2="94.9786" gradientUnits="userSpaceOnUse">
<stop stop-color="#F1C43D"/>
<stop offset="1" stop-color="#FFDC75"/>
</linearGradient>
<linearGradient id="paint3_linear_193_12864" x1="101" y1="61.25" x2="109.945" y2="49.6453" gradientUnits="userSpaceOnUse">
<stop stop-color="#F1C43D"/>
<stop offset="1" stop-color="#FFDC75"/>
</linearGradient>
<linearGradient id="paint4_linear_193_12864" x1="133" y1="114.583" x2="141.945" y2="102.979" gradientUnits="userSpaceOnUse">
<stop stop-color="#F1C43D"/>
<stop offset="1" stop-color="#FFDC75"/>
</linearGradient>
<linearGradient id="paint5_linear_193_12864" x1="85" y1="146.583" x2="93.9453" y2="134.979" gradientUnits="userSpaceOnUse">
<stop stop-color="#F1C43D"/>
<stop offset="1" stop-color="#FFDC75"/>
</linearGradient>
<linearGradient id="paint6_linear_193_12864" x1="95.667" y1="127.631" x2="119.078" y2="97.8349" gradientUnits="userSpaceOnUse">
<stop stop-color="#F1C43D"/>
<stop offset="1" stop-color="#FFDC75"/>
</linearGradient>
<linearGradient id="paint7_linear_193_12864" x1="62.333" y1="91.2479" x2="85.5734" y2="68.5885" gradientUnits="userSpaceOnUse">
<stop stop-color="#F1C43D"/>
<stop offset="1" stop-color="#FFDC75"/>
</linearGradient>
<linearGradient id="paint8_linear_193_12864" x1="53" y1="96.2708" x2="59.1875" y2="90.0833" gradientUnits="userSpaceOnUse">
<stop stop-color="#F1C43D"/>
<stop offset="1" stop-color="#FFDC75"/>
</linearGradient>
</defs>
</svg>
