<svg width="58" height="38" viewBox="0 0 58 38" fill="none" xmlns="http://www.w3.org/2000/svg">
<g clip-path="url(#clip0_1055_33034)">
<path d="M54.7 0C53.26 0 52.18 1.11 52.18 2.58V10.66C49.39 8.17 45.73 6.75 41.86 6.75C36.23 6.75 31.32 9.79 28.64 14.29C25.96 9.78 21.05 6.75 15.42 6.75C11.56 6.75 7.89 8.17 5.1 10.66V2.58C5.11 1.11 4.02 0 2.58 0C1.16 0 0 1.16 0 2.58V22.06C0 30.56 6.92 37.48 15.42 37.48C21.05 37.48 25.96 34.42 28.64 29.88C31.32 34.42 36.23 37.48 41.86 37.48C50.36 37.48 57.28 30.56 57.28 22.06V2.58C57.28 1.16 56.12 0 54.7 0ZM4.99 22.06C4.99 21.78 4.98 21.5 5.03 21.21L5.07 20.85C5.09 20.71 5.11 20.57 5.1 20.57C5.79 15.45 10.09 11.73 15.31 11.73C21.13 11.73 25.68 16.26 25.68 22.05C25.68 27.77 21.03 32.42 15.31 32.42C9.62 32.43 4.99 27.78 4.99 22.06ZM41.98 32.43C36.26 32.43 31.61 27.78 31.61 22.06C31.61 16.28 36.17 11.74 41.98 11.74C47.2 11.74 51.5 15.46 52.18 20.4C52.18 20.55 52.2 20.69 52.22 20.85L52.26 21.2C52.31 21.48 52.3 21.77 52.3 22.05C52.29 27.78 47.67 32.43 41.98 32.43Z" fill="#6957F0"/>
<path d="M12.67 15.23C10.94 15.23 9.55005 16.63 9.55005 18.35C9.55005 20.08 10.95 21.47 12.67 21.47C14.39 21.47 15.79 20.07 15.79 18.35C15.79 16.63 14.39 15.23 12.67 15.23Z" fill="#6957F0"/>
<path d="M39.2201 15.23C37.4901 15.23 36.1001 16.63 36.1001 18.35C36.1001 20.08 37.5001 21.47 39.2201 21.47C40.9401 21.47 42.3401 20.07 42.3401 18.35C42.3501 16.63 40.9501 15.23 39.2201 15.23Z" fill="#6957F0"/>
</g>
<defs>
<clipPath id="clip0_1055_33034">
<rect width="57.28" height="37.49" fill="white"/>
</clipPath>
</defs>
</svg>
